<svg width="75" height="75" viewBox="0 0 75 75" fill="none" xmlns="http://www.w3.org/2000/svg">
<rect width="75" height="75" rx="8" fill="#E6E6E6"/>
<path d="M37.5 8C40.208 8 42.82 8.3457 45.3359 9.03711C47.8519 9.72852 50.2046 10.7176 52.394 12.0044C54.5835 13.2912 56.5713 14.8276 58.3574 16.6138C60.1436 18.3999 61.68 20.3973 62.9668 22.606C64.2536 24.8146 65.2427 27.1673 65.9341 29.6641C66.6255 32.1608 66.9808 34.7728 67 37.5C67 40.208 66.6543 42.82 65.9629 45.3359C65.2715 47.8519 64.2824 50.2046 62.9956 52.394C61.7088 54.5835 60.1724 56.5713 58.3862 58.3574C56.6001 60.1436 54.6027 61.68 52.394 62.9668C50.1854 64.2536 47.8327 65.2427 45.3359 65.9341C42.8392 66.6255 40.2272 66.9808 37.5 67C34.792 67 32.18 66.6543 29.6641 65.9629C27.1481 65.2715 24.7954 64.2824 22.606 62.9956C20.4165 61.7088 18.4287 60.1724 16.6426 58.3862C14.8564 56.6001 13.32 54.6027 12.0332 52.394C10.7464 50.1854 9.75732 47.8423 9.06592 45.3647C8.37451 42.8872 8.01921 40.2656 8 37.5C8 34.792 8.3457 32.18 9.03711 29.6641C9.72852 27.1481 10.7176 24.7954 12.0044 22.606C13.2912 20.4165 14.8276 18.4287 16.6138 16.6426C18.3999 14.8564 20.3973 13.32 22.606 12.0332C24.8146 10.7464 27.1577 9.75732 29.6353 9.06592C32.1128 8.37451 34.7344 8.01921 37.5 8ZM37.5 63.3125C39.8623 63.3125 42.1382 63.0052 44.3276 62.3906C46.5171 61.776 48.5721 60.9118 50.4927 59.7979C52.4132 58.6839 54.161 57.3299 55.7358 55.7358C57.3107 54.1418 58.6551 52.4036 59.769 50.5215C60.883 48.6393 61.7568 46.5843 62.3906 44.3564C63.0244 42.1286 63.3317 39.8431 63.3125 37.5C63.3125 35.1377 63.0052 32.8618 62.3906 30.6724C61.776 28.4829 60.9118 26.4279 59.7979 24.5073C58.6839 22.5868 57.3299 20.839 55.7358 19.2642C54.1418 17.6893 52.4036 16.3449 50.5215 15.231C48.6393 14.117 46.5843 13.2432 44.3564 12.6094C42.1286 11.9756 39.8431 11.6683 37.5 11.6875C35.1377 11.6875 32.8618 11.9948 30.6724 12.6094C28.4829 13.224 26.4279 14.0882 24.5073 15.2021C22.5868 16.3161 20.839 17.6701 19.2642 19.2642C17.6893 20.8582 16.3449 22.5964 15.231 24.4785C14.117 26.3607 13.2432 28.4157 12.6094 30.6436C11.9756 32.8714 11.6683 35.1569 11.6875 37.5C11.6875 39.8623 11.9948 42.1382 12.6094 44.3276C13.224 46.5171 14.0882 48.5721 15.2021 50.4927C16.3161 52.4132 17.6701 54.161 19.2642 55.7358C20.8582 57.3107 22.5964 58.6551 24.4785 59.769C26.3607 60.883 28.4157 61.7568 30.6436 62.3906C32.8714 63.0244 35.1569 63.3317 37.5 63.3125ZM54.6987 37.9609L56.0815 33.8125H58.2422L55.7935 41.1875H53.6328L52.25 37.0391L50.8672 41.1875H48.7065L46.2578 33.8125H48.4185L49.8013 37.9609L51.1841 33.8125H53.3159L54.6987 37.9609ZM41.3315 33.8125H43.4922L41.0435 41.1875H38.8828L37.5 37.0391L36.1172 41.1875H33.9565L31.5078 33.8125H33.6685L35.0513 37.9609L36.4341 33.8125H38.5659L39.9487 37.9609L41.3315 33.8125ZM26.5815 33.8125H28.7422L26.2935 41.1875H24.1328L22.75 37.0391L21.3672 41.1875H19.2065L16.7578 33.8125H18.9185L20.3013 37.9609L21.6841 33.8125H23.8159L25.1987 37.9609L26.5815 33.8125Z" fill="#071333"/>
</svg>
