<svg xmlns="http://www.w3.org/2000/svg" viewBox="26.205002136230462 138.59 522.5899963378906 259.4160000762939"><rect height="100%" width="100%" x="26.205002136230462" y="138.59" fill="rgba(7, 19, 51, 1)"/> <svg xmlns="http://www.w3.org/2000/svg" xmlns:xlink="http://www.w3.org/1999/xlink" version="1.1" id="9999_1" x="246.498" y="208.59" viewBox="1526.8099365234375 771.2100830078125 2252.39013671875 1457.5701904296875" xml:space="preserve" height="77.65463584710744" width="120" preserveAspectRatio="xMinYMin" enable-background="new 0 0 5000 3000" style="overflow: visible;"><path d="M3779.2,1278c-249.15,104.07-609.38,259.94-860.03,368.62c-73.67,32.13-147.7,64.54-221.7,96.93  c-49.67-79.51-100.1-159.98-150.1-239.62c95.64-81.22,189.86-161.66,281.31-240.25c-94.05,74.65-190.42,151.65-287.81,229.89  c-103.89-165.45-205.23-326.29-291.17-463.36c-57.42,113.83-134.36,267.22-215.76,429.97  c-168.21-230.26-337.12-460.02-507.13-688.97c83.04,121.26,166.73,242.05,250.64,362.69c59.01,85.66,147.04,211.88,244.25,350.76  c-128.17,256.33-265.46,531.98-354.1,711.06c0,0-16.42,33.06-16.42,33.06c233.75,0.01,666.82-2,900.73-3.28l38.39-0.2l-22.42-30.84  c0,0-92.58-127.35-199.49-274.41c108.49-48.47,217.09-97.17,325.51-145.98c104.01,156.44,204.7,306.97,289.26,431.8  c-79.17-130.38-173.4-282.48-271.57-439.75c216.49-97.48,431.97-195.17,643.09-291.47C3496.16,1409.06,3638.09,1344.44,3779.2,1278z   M2519.39,1510.85c-93.71,75.33-188.24,151.7-282.58,228.23c-78.11-107.44-146.76-201.87-174.4-239.9  c72.07-146.61,139.97-285.1,191.64-391.05C2332.84,1228.11,2424.53,1367.37,2519.39,1510.85z M2213.39,1758.08  c-158.36,128.55-315.71,257.13-466.85,381.29c83.12-167.67,196.87-398.2,303.26-614.57  C2103.25,1601.12,2158.81,1680.32,2213.39,1758.08z M2225.7,1775.62c31.98,45.55,63.51,90.45,94,133.85  c-181.6,80.1-362.84,160.64-542.94,241.25C1922.98,2029.24,2074.29,1902.88,2225.7,1775.62z M2513.98,2186.01  c-196.14-1.13-523.53-2.6-739.02-2.92c185.33-81.47,373.25-164.73,562.04-249.01C2404.36,2029.97,2465.69,2117.23,2513.98,2186.01z   M2350.76,1895.81c-33.71-46.36-68.38-94.05-101.67-139.85c92.94-78.17,185.77-156.56,277.43-234.34  c50.49,76.36,101.79,153.76,152.46,230.02C2569.69,1799.49,2460.27,1847.54,2350.76,1895.81z" style="fill: #dbb171; fill-opacity: 1;"></path></svg> <svg y="298.836" viewBox="0.23000000417232513 5.809999942779541 382.5899963378906 29.170000076293945" x="96.20500213623046" height="29.170000076293945" width="382.5899963378906" style="overflow: visible;"><g fill="#F5F5F5" fill-opacity="1" style=""><path d="M32.68 10.96Q33.15 9.55 33.15 8.77L33.15 8.77Q33.15 7.18 31.75 7.06L31.75 7.06L37.79 7.06Q37.21 7.18 36.29 7.96Q35.37 8.74 34.59 11.00L34.59 11.00L26.17 34.83L18.64 13.22L10.88 34.83L3.20 10.88Q2.18 7.60 0.23 7.06L0.23 7.06L6.71 7.06Q5.62 7.25 5.62 8.35L5.62 8.35Q5.62 8.89 6.08 10.30L6.08 10.30L6.51 11.66L11.43 27.92L19.34 6.32L26.87 27.77L32.68 10.96ZM58.58 33.89L43.87 33.89Q43.87 34.01 44.34 33.72Q44.81 33.42 45.18 32.55Q45.55 31.67 45.55 29.99L45.55 29.99L45.55 10.84Q45.55 9.24 45.18 8.40Q44.81 7.57 44.34 7.25Q43.87 6.94 43.87 7.06L43.87 7.06L57.99 7.06L57.99 10.96Q57.29 8.62 53.78 8.62L53.78 8.62L48.36 8.62L48.36 19.70L55.07 19.70Q55.85 19.70 56.39 19.44Q56.94 19.19 57.21 18.91Q57.49 18.64 57.52 18.56L57.52 18.56L57.52 22.35Q57.49 22.27 57.21 22.00Q56.94 21.72 56.41 21.49Q55.89 21.25 55.11 21.25L55.11 21.25L48.36 21.25L48.36 32.33L54.44 32.33Q56.20 32.33 57.47 31.61Q58.73 30.89 59.28 29.76L59.28 29.76L58.58 33.89ZM74.68 34.36Q72.66 34.36 70.78 33.79Q68.91 33.23 67.43 32.21L67.43 32.21L67.43 27.49Q68.44 30.11 70.53 31.45Q72.62 32.80 74.88 32.80L74.88 32.80Q77.14 32.80 78.66 31.30Q80.18 29.80 80.18 27.57L80.18 27.57Q80.18 26.09 79.58 25.04Q78.97 23.98 77.65 23.07Q76.32 22.15 73.90 21.02L73.90 21.02Q70.51 19.46 68.97 17.76Q67.43 16.07 67.43 13.65L67.43 13.65Q67.43 11.58 68.43 9.96Q69.42 8.35 71.12 7.47Q72.81 6.59 74.84 6.59L74.84 6.59Q76.60 6.59 78.27 7.08Q79.95 7.57 81.39 8.46L81.39 8.46L81.39 12.67Q80.46 10.53 78.57 9.34Q76.67 8.15 74.72 8.15L74.72 8.15Q72.50 8.15 71.14 9.59Q69.77 11.04 69.77 13.03L69.77 13.03Q69.77 14.47 70.59 15.50Q71.41 16.54 72.60 17.24Q73.79 17.94 75.93 18.95L75.93 18.95Q78.12 20.01 79.52 20.90Q80.92 21.80 81.86 23.24Q82.80 24.69 82.80 26.75L82.80 26.75Q82.80 29.09 81.69 30.81Q80.57 32.53 78.72 33.44Q76.87 34.36 74.68 34.36L74.68 34.36ZM93.44 8.62Q91.73 8.62 90.60 9.28Q89.47 9.94 88.96 10.96L88.96 10.96L89.50 7.06L107.99 7.06L108.54 10.96Q108.03 9.94 106.90 9.28Q105.77 8.62 104.05 8.62L104.05 8.62L100.15 8.62L100.15 30.26Q100.15 31.82 100.54 32.64Q100.93 33.46 101.40 33.73Q101.87 34.01 101.87 33.89L101.87 33.89L95.67 33.89Q95.67 34.01 96.13 33.73Q96.60 33.46 96.97 32.66Q97.34 31.86 97.34 30.26L97.34 30.26L97.34 8.62L93.44 8.62ZM130.34 33.89L115.63 33.89Q115.63 34.01 116.10 33.72Q116.57 33.42 116.94 32.55Q117.31 31.67 117.31 29.99L117.31 29.99L117.31 10.84Q117.31 9.24 116.94 8.40Q116.57 7.57 116.10 7.25Q115.63 6.94 115.63 7.06L115.63 7.06L129.75 7.06L129.75 10.96Q129.05 8.62 125.54 8.62L125.54 8.62L120.12 8.62L120.12 19.70L126.83 19.70Q127.61 19.70 128.15 19.44Q128.70 19.19 128.97 18.91Q129.25 18.64 129.28 18.56L129.28 18.56L129.28 22.35Q129.25 22.27 128.97 22.00Q128.70 21.72 128.17 21.49Q127.65 21.25 126.87 21.25L126.87 21.25L120.12 21.25L120.12 32.33L126.20 32.33Q127.96 32.33 129.23 31.61Q130.49 30.89 131.04 29.76L131.04 29.76L130.34 33.89ZM158.96 7.06L164.46 7.06Q163.92 7.18 163.39 7.94Q162.86 8.70 162.86 10.61L162.86 10.61L162.86 34.98L142.90 11.70L142.90 30.38Q142.90 32.25 143.56 33.01Q144.22 33.77 144.85 33.89L144.85 33.89L139.35 33.89Q139.89 33.77 140.46 33.01Q141.02 32.25 141.02 30.34L141.02 30.34L141.02 10.84Q141.02 9.52 140.13 8.42Q139.23 7.33 137.86 7.06L137.86 7.06L142.70 7.06L160.99 28.39L160.99 10.61Q160.99 7.60 158.96 7.06L158.96 7.06ZM191.14 31.71Q187.47 33.89 181.35 33.89L181.35 33.89L173.67 33.89Q173.67 34.01 174.13 33.68Q174.60 33.34 174.97 32.45Q175.34 31.55 175.34 29.83L175.34 29.83L175.34 10.65Q175.34 9.13 174.97 8.33Q174.60 7.53 174.13 7.25Q173.67 6.98 173.67 7.06L173.67 7.06L181.31 7.06Q187.28 7.06 190.75 9.01L190.75 9.01Q193.83 10.72 195.51 13.65Q197.18 16.57 197.18 20.24L197.18 20.24Q197.18 24.22 195.60 27.12Q194.02 30.03 191.14 31.71L191.14 31.71ZM189.62 10.76Q187.90 9.63 185.95 9.13Q184.00 8.62 181.31 8.62L181.31 8.62L178.15 8.62L178.15 32.33L181.31 32.33Q184.51 32.33 186.56 31.78Q188.60 31.24 190.09 30.11L190.09 30.11Q192.00 28.63 193.03 26.23Q194.06 23.83 194.06 20.63L194.06 20.63Q194.06 17.24 192.87 14.68Q191.68 12.13 189.62 10.76L189.62 10.76ZM236.38 31.71Q232.71 33.89 226.59 33.89L226.59 33.89L218.91 33.89Q218.91 34.01 219.37 33.68Q219.84 33.34 220.21 32.45Q220.58 31.55 220.58 29.83L220.58 29.83L220.58 10.65Q220.58 9.13 220.21 8.33Q219.84 7.53 219.37 7.25Q218.91 6.98 218.91 7.06L218.91 7.06L226.55 7.06Q232.52 7.06 235.99 9.01L235.99 9.01Q239.07 10.72 240.75 13.65Q242.42 16.57 242.42 20.24L242.42 20.24Q242.42 24.22 240.84 27.12Q239.26 30.03 236.38 31.71L236.38 31.71ZM234.86 10.76Q233.14 9.63 231.19 9.13Q229.24 8.62 226.55 8.62L226.55 8.62L223.39 8.62L223.39 32.33L226.55 32.33Q229.75 32.33 231.80 31.78Q233.84 31.24 235.33 30.11L235.33 30.11Q237.24 28.63 238.27 26.23Q239.30 23.83 239.30 20.63L239.30 20.63Q239.30 17.24 238.11 14.68Q236.92 12.13 234.86 10.76L234.86 10.76ZM251.00 33.89Q251.00 34.01 251.47 33.72Q251.94 33.42 252.33 32.62Q252.72 31.82 252.72 30.26L252.72 30.26L252.72 10.69Q252.72 9.13 252.35 8.33Q251.98 7.53 251.51 7.25Q251.04 6.98 251.04 7.06L251.04 7.06L257.24 7.06Q257.24 6.98 256.78 7.25Q256.31 7.53 255.92 8.33Q255.53 9.13 255.53 10.69L255.53 10.69L255.53 30.26Q255.53 31.82 255.92 32.62Q256.31 33.42 256.78 33.70Q257.24 33.97 257.24 33.89L257.24 33.89L251.00 33.89ZM279.36 34.32Q275.65 34.32 272.49 32.76Q269.33 31.20 267.42 28.08Q265.51 24.96 265.51 20.47L265.51 20.47Q265.51 16.50 267.33 13.34Q269.14 10.18 272.43 8.38Q275.73 6.59 280.02 6.59L280.02 6.59Q282.75 6.59 284.95 7.21Q287.16 7.84 288.44 8.58L288.44 8.58L288.44 12.91Q287.23 10.80 284.84 9.52Q282.44 8.23 279.94 8.23L279.94 8.23Q276.47 8.23 273.92 9.69Q271.36 11.15 270.00 13.84Q268.63 16.54 268.63 20.16L268.63 20.16Q268.63 24.10 270.21 26.91Q271.79 29.72 274.40 31.12Q277.02 32.53 280.10 32.53L280.10 32.53Q281.50 32.53 283.00 32.19Q284.50 31.86 285.79 31.24L285.79 31.24L285.79 24.80Q285.79 23.59 285.40 22.91Q285.01 22.23 284.54 21.94Q284.08 21.64 284.08 21.72L284.08 21.72L290.32 21.72Q290.32 21.64 289.85 21.88Q289.38 22.11 288.99 22.76Q288.60 23.40 288.60 24.57L288.60 24.57L288.60 31.67Q286.53 32.95 284.13 33.64Q281.74 34.32 279.36 34.32L279.36 34.32ZM298.74 33.89Q298.74 34.01 299.21 33.72Q299.68 33.42 300.07 32.62Q300.46 31.82 300.46 30.26L300.46 30.26L300.46 10.69Q300.46 9.13 300.09 8.33Q299.71 7.53 299.25 7.25Q298.78 6.98 298.78 7.06L298.78 7.06L304.98 7.06Q304.98 6.98 304.51 7.25Q304.04 7.53 303.65 8.33Q303.26 9.13 303.26 10.69L303.26 10.69L303.26 30.26Q303.26 31.82 303.65 32.62Q304.04 33.42 304.51 33.70Q304.98 33.97 304.98 33.89L304.98 33.89L298.74 33.89ZM316.52 8.62Q314.81 8.62 313.68 9.28Q312.55 9.94 312.04 10.96L312.04 10.96L312.58 7.06L331.07 7.06L331.62 10.96Q331.11 9.94 329.98 9.28Q328.85 8.62 327.13 8.62L327.13 8.62L323.23 8.62L323.23 30.26Q323.23 31.82 323.62 32.64Q324.01 33.46 324.48 33.73Q324.95 34.01 324.95 33.89L324.95 33.89L318.75 33.89Q318.75 34.01 319.21 33.73Q319.68 33.46 320.05 32.66Q320.42 31.86 320.42 30.26L320.42 30.26L320.42 8.62L316.52 8.62ZM351.78 23.48L342.07 23.48L339.57 29.68Q338.99 31.12 338.99 32.06L338.99 32.06Q338.99 33.34 340.16 33.89L340.16 33.89L334.58 33.89Q334.97 33.89 335.71 33.11Q336.45 32.33 337.43 30.03L337.43 30.03L347.61 5.81L357.71 30.15Q358.57 32.25 359.37 33.03Q360.16 33.81 360.63 33.89L360.63 33.89L354.16 33.89Q355.13 33.42 355.13 32.45L355.13 32.45Q355.13 31.63 354.51 30.11L354.51 30.11L351.78 23.48ZM342.73 21.88L351.16 21.88L346.90 11.47L342.73 21.88ZM368.78 10.69Q368.78 9.13 368.41 8.33Q368.04 7.53 367.57 7.25Q367.11 6.98 367.11 7.06L367.11 7.06L373.31 7.06Q373.31 6.98 372.84 7.25Q372.37 7.53 371.98 8.33Q371.59 9.13 371.59 10.69L371.59 10.69L371.59 32.33L377.99 32.33Q379.74 32.33 381.01 31.61Q382.28 30.89 382.82 29.76L382.82 29.76L382.12 33.89L367.11 33.89Q367.11 34.01 367.57 33.72Q368.04 33.42 368.41 32.55Q368.78 31.67 368.78 29.99L368.78 29.99L368.78 10.69Z" transform="translate(0, 0)"></path></g></svg></svg>